<svg width="20" height="16" viewBox="0 0 20 16" fill="none" xmlns="http://www.w3.org/2000/svg">
<path d="M19.7938 1.46918C19.7732 1.51207 19.7423 1.54424 19.7114 1.58714L12.8866 9.64076C12.1547 10.5094 11.1031 11.0027 9.98971 11.0027C8.88662 11.0027 7.8247 10.5094 7.09274 9.64076L0.18556 1.4799C0.0618482 1.78017 0 2.10188 0 2.44505V11.6783C0 14.059 1.85564 16 4.15461 16H15.8454C18.1341 16 20 14.0697 20 11.6783V2.44505C19.9897 2.10188 19.9175 1.76945 19.7938 1.46918Z" fill="black" fill-opacity="0.6"/>
<path d="M8.64946 8.21447C8.98966 8.62198 9.46394 8.84718 9.98971 8.84718C10.5155 8.84718 10.9897 8.62198 11.3299 8.21447L18.1547 0.16086C18.1753 0.128688 18.2062 0.107241 18.2372 0.0857928C18.0413 0.0321735 17.8351 0 17.6289 0H2.35049C2.1443 0 1.94841 0.0321735 1.75253 0.0857928L8.64946 8.21447Z" fill="black" fill-opacity="0.6"/>
</svg>
