<svg width="20" height="15" viewBox="0 0 20 15" fill="none" xmlns="http://www.w3.org/2000/svg">
<g opacity="0.6" clip-path="url(#clip0_9_302)">
<path d="M0 7.34353C1.78829 4.38997 4.25728 2.31324 7.66657 1.5114C9.90482 0.986449 12.1027 1.2172 14.214 2.12288C14.3698 2.18633 14.4505 2.16903 14.5601 2.05365C15.1716 1.43064 15.7889 0.819157 16.4061 0.201909C16.5849 0.0230796 16.7984 -0.0461445 17.0464 0.0288483C17.2772 0.0980724 17.4214 0.259595 17.4733 0.490342C17.531 0.744164 17.4272 0.946068 17.2483 1.11913C16.4177 1.96712 15.5754 2.80935 14.7332 3.65158C11.0412 7.34353 7.34929 11.0355 3.65734 14.7274C3.47851 14.9063 3.28238 15.0389 3.02279 14.987C2.7805 14.9409 2.61321 14.8024 2.53245 14.5601C2.45169 14.3121 2.51514 14.0987 2.69974 13.9141C3.21892 13.3949 3.7381 12.8757 4.26305 12.3565C4.31497 12.3046 4.37266 12.2642 4.45342 12.2008C2.59014 11.0239 1.09028 9.5414 0 7.65504C0 7.5512 0 7.44737 0 7.34353ZM6.92241 9.651C5.75137 7.9204 6.24171 5.93597 7.36083 4.83416C8.46842 3.73811 10.4355 3.25931 12.1315 4.40727C12.5584 3.98039 12.9738 3.56505 13.3891 3.1497C13.3949 3.15547 13.3776 3.13816 13.3603 3.1324C11.2143 2.31901 9.05105 2.26709 6.8878 3.0401C4.58033 3.85925 2.82665 5.39949 1.43063 7.37814C1.36141 7.48198 1.37871 7.54543 1.44217 7.63196C1.96712 8.38766 2.57283 9.0799 3.24776 9.70292C3.88809 10.2971 4.5861 10.8163 5.33603 11.2374C5.87828 10.7009 6.39746 10.176 6.92241 9.651ZM7.85694 8.72801C8.9876 7.59735 10.1067 6.47823 11.2258 5.35911C10.5278 4.85723 9.19527 4.79954 8.26074 5.70523C7.34352 6.59937 7.31468 7.9377 7.85694 8.72801Z" fill="black"/>
<path d="M20 7.65503C18.2809 10.5048 15.91 12.5353 12.6565 13.4122C10.7586 13.9256 8.86069 13.8564 6.97433 13.3083C6.95126 13.3026 6.92818 13.2853 6.88203 13.2622C7.21085 12.9334 7.53389 12.6103 7.85694 12.2988C7.89155 12.27 7.96655 12.2642 8.01846 12.2757C11.1393 12.9276 13.8737 12.1084 16.2965 10.1125C17.1676 9.39717 17.906 8.56071 18.5521 7.63772C18.6213 7.53388 18.6271 7.47043 18.5521 7.36659C17.8137 6.31669 16.9426 5.38794 15.9273 4.6034C15.8696 4.55725 15.8119 4.51687 15.76 4.47072C15.7485 4.45918 15.7485 4.44764 15.7485 4.44764C16.0427 4.15344 16.3369 3.85924 16.6484 3.54773C17.9925 4.59763 19.1405 5.83789 20 7.34352C20 7.44735 20 7.55119 20 7.65503Z" fill="black"/>
<path d="M9.04529 11.0989C9.41448 10.7355 9.76637 10.3779 10.1298 10.026C10.1644 9.99135 10.2336 9.97982 10.2913 9.96828C11.4566 9.81253 12.3161 8.95299 12.4661 7.79926C12.4719 7.74157 12.4834 7.67235 12.518 7.63773C12.8699 7.27431 13.2276 6.91665 13.591 6.55322C13.9371 7.49929 13.7179 9.03375 12.7026 10.0894C11.647 11.197 10.0836 11.4508 9.04529 11.0989Z" fill="black"/>
<path d="M6.92241 9.65102C6.39746 10.176 5.87251 10.7009 5.34179 11.2316C4.59186 10.8105 3.89962 10.2913 3.25353 9.69717C2.5786 9.07416 1.97289 8.38192 1.44794 7.62622C1.38448 7.53969 1.36717 7.47046 1.4364 7.3724C2.83242 5.39374 4.58033 3.8535 6.89357 3.03435C9.05682 2.26712 11.2201 2.31327 13.366 3.12665C13.3833 3.13242 13.4006 3.14396 13.3949 3.14396C12.9795 3.5593 12.5584 3.98041 12.1373 4.40153C10.4413 3.25356 8.47418 3.73236 7.3666 4.82841C6.24171 5.94176 5.75137 7.92619 6.92241 9.65102Z" fill="white"/>
<path d="M7.85693 8.72802C7.31468 7.93195 7.34352 6.59361 8.26651 5.69947C9.20103 4.79955 10.5278 4.85147 11.2316 5.35335C10.1067 6.47824 8.98759 7.59736 7.85693 8.72802Z" fill="white"/>
</g>
<defs>
<clipPath id="clip0_9_302">
<rect width="20" height="14.9986" fill="white"/>
</clipPath>
</defs>
</svg>
