<svg width="13" height="23" viewBox="0 0 13 23" fill="none" xmlns="http://www.w3.org/2000/svg">
<path fill-rule="evenodd" clip-rule="evenodd" d="M10.2099 4.21682C10.902 4.21682 11.594 4.21682 12.286 4.21682C12.3437 4.21682 12.4591 4.21682 12.5744 4.21682V0.641273C12.2284 0.583603 11.8247 0.525933 11.421 0.525933C10.7289 0.468263 10.0369 0.468262 9.34486 0.468262C8.24913 0.468262 7.21107 0.756611 6.34601 1.39098C5.30795 2.14069 4.73125 3.17876 4.50057 4.38983C4.4429 4.90886 4.38523 5.42789 4.38523 5.94692C4.38523 6.7543 4.38523 7.56169 4.38523 8.36907V8.65742H0.982697V12.6943H4.38523V22.7289H8.53748V12.6943H11.94C12.113 11.3679 12.286 10.0415 12.4591 8.65742C12.1707 8.65742 11.94 8.65742 11.7093 8.65742C10.7289 8.65742 8.53748 8.65742 8.53748 8.65742C8.53748 8.65742 8.53748 6.69663 8.59515 5.83158C8.59515 4.62051 9.28719 4.27449 10.2099 4.21682Z" fill="url(#paint0_linear_9_323)"/>
<defs>
<linearGradient id="paint0_linear_9_323" x1="-0.28893" y1="2.06976" x2="13.4417" y2="17.1084" gradientUnits="userSpaceOnUse">
<stop stop-color="#0D0E19"/>
<stop offset="0.6022" stop-color="#20222A"/>
<stop offset="0.8398" stop-color="#3E4151"/>
<stop offset="1" stop-color="#4E5266"/>
</linearGradient>
</defs>
</svg>
