<svg width="19" height="18" viewBox="0 0 19 18" fill="none" xmlns="http://www.w3.org/2000/svg">
<path d="M9.67921 7.21452C9.67921 7.27219 9.67921 7.32986 9.67921 7.32986C9.67921 8.36792 9.67921 10.6747 9.67921 10.6747C9.67921 10.6747 14.1198 10.6747 14.3505 10.6747C14.3505 11.0207 13.9468 12.4048 12.6204 13.3276C11.8707 13.8466 11.0056 14.0773 10.0829 14.1349C9.44853 14.1926 8.81417 14.1349 8.1798 13.9043C6.21901 13.2699 4.77724 11.5398 4.60423 9.34831C4.54656 8.82928 4.60423 8.31025 4.71957 7.79122C5.29628 5.25373 7.71842 3.35062 10.4866 3.75431C11.6977 3.92732 12.3897 4.44635 13.0817 4.96538C13.9468 4.10033 14.7542 3.29295 15.6192 2.4279C15.3885 2.25489 14.9272 1.79353 14.0621 1.2745C12.7934 0.524784 11.4093 0.178764 9.90989 0.121094C9.62154 0.121094 9.33318 0.121094 9.04483 0.121094C8.58347 0.121094 8.06444 0.236434 7.60308 0.351774C5.69997 0.813135 4.14289 1.8512 2.93181 3.35062C1.77841 4.79237 1.14404 6.46481 0.971029 8.36792C0.913359 9.1753 0.971022 9.92501 1.14403 10.7324C1.66306 12.9239 2.7588 14.654 4.54657 15.9804C5.93065 17.0184 7.48776 17.5375 9.21786 17.6528C10.1983 17.7105 11.121 17.5951 12.1014 17.3645C13.8315 16.9031 15.3309 15.9804 16.4266 14.5386C17.9837 12.4048 18.3874 9.752 17.926 7.15685C15.1579 7.21452 12.4474 7.21452 9.67921 7.21452Z" fill="url(#paint0_linear_9_332)"/>
<defs>
<linearGradient id="paint0_linear_9_332" x1="-0.507633" y1="8.9971" x2="36.6936" y2="8.9971" gradientUnits="userSpaceOnUse">
<stop stop-color="#0D0E19"/>
<stop offset="0.6022" stop-color="#20222A"/>
<stop offset="0.8398" stop-color="#3E4151"/>
<stop offset="1" stop-color="#4E5266"/>
</linearGradient>
</defs>
</svg>
