<svg width="18" height="20" viewBox="0 0 18 20" fill="none" xmlns="http://www.w3.org/2000/svg">
<g opacity="0.6" clip-path="url(#clip0_9_300)">
<path d="M15.758 7.54902C15.7739 6.41669 15.7845 5.27727 15.7643 5.01637C15.5648 2.43225 12.8981 0.238585 9.69321 0.0229458C9.49257 0.00963477 9.29193 0.00164814 9.09554 -0.000126673C7.3482 -0.0152125 5.80679 0.441801 4.51168 1.35671C3.22824 2.26453 2.38429 3.60273 2.25584 4.9365C2.23248 5.17699 2.2293 6.3812 2.23036 7.55168C0.957537 7.76289 0 8.67159 0 9.75955V19.7446C0 20.9896 1.25372 21.9995 2.80042 21.9995H15.2006C16.7473 21.9995 18.0011 20.9896 18.0011 19.7446V9.75955C18 8.66804 17.0372 7.75756 15.758 7.54902ZM8.90127 2.3231C8.94904 2.32221 8.99575 2.32221 9.04246 2.32221C10.4013 2.33375 11.5913 2.89547 12.3079 3.86363C12.7091 4.40584 12.8514 5.99518 12.8907 7.50465H5.10828C5.15817 6.02357 5.29512 4.39962 5.66667 3.89469C6.38323 2.91943 7.56157 2.34706 8.90127 2.3231Z" fill="black"/>
</g>
<defs>
<clipPath id="clip0_9_300">
<rect width="18" height="20" fill="white"/>
</clipPath>
</defs>
</svg>
